<?xml version="1.0" standalone="no"?>
<!DOCTYPE svg PUBLIC "-//W3C//DTD SVG 20010904//EN"
 "http://www.w3.org/TR/2001/REC-SVG-20010904/DTD/svg10.dtd">
<svg version="1.0" xmlns="http://www.w3.org/2000/svg"
 width="225.000000pt" height="225.000000pt" viewBox="0 0 225.000000 225.000000"
 preserveAspectRatio="xMidYMid meet">
<metadata>
Created by potrace 1.14, written by Peter Selinger 2001-2017
</metadata>
<g transform="translate(0.000000,225.000000) scale(0.100000,-0.100000)"
fill="#000000" stroke="none">
<path d="M1996 2063 c-3 -3 -152 -9 -333 -13 -323 -8 -416 -18 -490 -52 -11
-6 -26 -7 -32 -3 -7 4 -17 2 -24 -3 -11 -8 -62 -18 -137 -26 -35 -4 -142 -26
-160 -33 -8 -3 -23 -5 -33 -4 -10 1 -25 -3 -33 -9 -8 -7 -14 -10 -14 -6 0 3
-16 -1 -36 -9 -57 -24 -80 -27 -234 -29 -151 -3 -272 -14 -266 -25 2 -3 -39
-7 -92 -8 -52 -1 -99 -6 -104 -11 -5 -5 -7 -173 -6 -374 3 -311 5 -367 18
-380 9 -8 24 -35 35 -59 11 -24 25 -48 31 -54 6 -5 17 -20 25 -31 8 -12 61
-72 119 -133 58 -62 109 -120 114 -129 5 -9 12 -19 15 -22 10 -8 31 -44 37
-63 4 -9 11 -17 16 -17 6 0 8 -31 5 -80 -4 -49 -2 -80 4 -80 6 0 5 -8 -1 -21
-8 -15 -8 -24 0 -34 7 -8 8 -20 4 -26 -4 -8 -3 -9 4 -5 8 5 13 -1 13 -16 1
-13 3 -30 3 -38 3 -32 28 -90 39 -90 9 0 9 -2 0 -8 -9 -6 -9 -13 2 -32 15 -27
29 -56 51 -108 l14 -32 395 0 395 0 0 28 1 27 14 -25 c13 -24 13 -23 8 18 l-6
42 49 1 c27 0 118 2 202 5 111 4 152 2 152 -7 0 -6 8 -9 20 -6 21 5 70 -42 70
-69 0 -12 34 -14 200 -14 l200 0 0 1034 0 1033 -125 0 c-68 0 -127 -2 -129 -4z
m29 -372 c-25 -5 -27 -8 -12 -14 27 -10 67 -9 67 3 0 13 46 -27 65 -56 12 -19
13 -27 1 -56 -7 -18 -11 -39 -9 -45 3 -7 0 -13 -5 -13 -6 0 -12 5 -14 12 -8
24 -38 -1 -38 -33 0 -17 -9 -44 -21 -60 l-20 -29 -30 22 c-16 12 -29 30 -29
40 0 12 -7 18 -21 18 -18 0 -20 4 -15 25 4 16 2 25 -5 25 -8 0 -10 17 -6 56 7
66 12 74 32 48 11 -15 14 -16 15 -3 0 8 -5 20 -11 26 -15 15 27 43 61 42 23
-1 23 -2 -5 -8z m-875 -81 c-20 -13 1 -13 34 0 25 9 26 8 26 -25 0 -18 -4 -37
-10 -40 -5 -3 -10 -18 -10 -32 0 -34 -42 -123 -57 -123 -7 0 -13 -5 -13 -11 0
-8 -5 -8 -15 1 -8 7 -15 19 -15 27 0 8 -4 12 -9 8 -5 -3 -12 3 -15 12 -3 10
-33 47 -67 82 -55 58 -59 65 -45 79 8 9 19 12 23 8 5 -5 2 -11 -4 -13 -7 -3
-13 -9 -13 -14 0 -7 21 1 50 19 2 2 -2 7 -10 12 -11 7 -8 10 13 10 15 0 27 -5
27 -11 0 -6 17 -9 43 -7 27 2 41 7 40 16 -2 7 7 12 20 12 18 0 19 -2 7 -10z
m-750 -81 c0 -7 9 -9 22 -6 12 4 28 1 35 -5 10 -8 13 -7 13 3 1 8 7 3 14 -11
13 -24 13 -38 -8 -145 -9 -51 -19 -75 -30 -75 -7 0 -19 -11 -26 -25 -7 -13
-17 -22 -23 -18 -8 5 -5 -14 11 -56 3 -9 1 -12 -5 -8 -6 4 -13 1 -16 -5 -6
-18 12 -50 24 -43 12 8 7 -18 -6 -27 -6 -4 -5 -20 4 -43 19 -53 0 -94 -43 -97
l-31 -1 33 -4 c20 -3 32 -10 32 -19 0 -9 -5 -12 -12 -8 -7 4 -22 8 -35 9 -27
1 -75 44 -69 62 3 7 -1 13 -8 13 -30 0 -44 61 -45 190 -1 69 -4 158 -7 198 -6
67 -5 74 16 92 14 12 37 20 61 20 21 0 41 5 44 10 8 14 55 13 55 -1z m1720
-74 c0 -2 -10 -9 -22 -15 -22 -11 -22 -10 -4 4 21 17 26 19 26 11z m-1670
-395 c0 -5 -4 -10 -10 -10 -5 0 -10 5 -10 10 0 6 5 10 10 10 6 0 10 -4 10 -10z
m10 -75 c0 -8 -4 -15 -8 -15 -5 0 -9 7 -9 15 0 8 4 15 9 15 4 0 8 -7 8 -15z
m1203 -852 c-13 -2 -33 -2 -45 0 -13 2 -3 4 22 4 25 0 35 -2 23 -4z"/>
<path d="M2095 1641 c-3 -5 -1 -12 5 -16 5 -3 10 1 10 9 0 18 -6 21 -15 7z"/>
<path d="M1951 1559 c-1 -9 6 -30 14 -45 19 -36 19 -10 0 31 -8 17 -14 23 -14
14z"/>
<path d="M1185 1590 c3 -5 8 -10 11 -10 2 0 4 5 4 10 0 6 -5 10 -11 10 -5 0
-7 -4 -4 -10z"/>
<path d="M335 1140 c-3 -5 1 -10 10 -10 9 0 13 5 10 10 -3 6 -8 10 -10 10 -2
0 -7 -4 -10 -10z"/>
<path d="M281 1114 c0 -11 3 -14 6 -6 3 7 2 16 -1 19 -3 4 -6 -2 -5 -13z"/>
<path d="M288 1043 c7 -3 16 -2 19 1 4 3 -2 6 -13 5 -11 0 -14 -3 -6 -6z"/>
<path d="M7 2023 c7 -2 19 -2 26 0 6 3 1 5 -13 5 -14 0 -19 -2 -13 -5z"/>
<path d="M7 593 c7 -2 19 -2 26 0 6 3 1 5 -13 5 -14 0 -19 -2 -13 -5z"/>
</g>
</svg>
